# xmcd
#
# Track frame offsets:
#        150
#        15297
#        32474
#        47240
#        63522
#
# Disc length: 1120 seconds
#
# Revision: 0
# Processed by: cddbd v1.5.1PL0 Copyright (c) Steve Scherf et al.
# Submitted via: ExactAudioCopy v0.95a5
#
DISCID=33045e05
DTITLE=Pat C. - Petit Suite
DYEAR=2002
DGENRE=Pop
TTITLE0=Pisca Punga
TTITLE1=Venha Agora
TTITLE2=Lao Tse
TTITLE3=Jules&Jim
TTITLE4=Pura Saudade
EXTD=
EXTT0=
EXTT1=
EXTT2=
EXTT3=
EXTT4=
PLAYORDER=
